<?xml version="1.0" encoding="UTF-8" standalone="no"?>
<!-- Created with Inkscape (http://www.inkscape.org/) -->

<svg
   width="106.48779mm"
   height="106.45873mm"
   viewBox="0 0 106.48779 106.45873"
   version="1.1"
   id="svg1"
   xml:space="preserve"
   xmlns="http://www.w3.org/2000/svg"
   xmlns:svg="http://www.w3.org/2000/svg"><defs
     id="defs1" /><g
     id="layer1"
     transform="translate(-50.486703,-84.124181)"><g
       id="g1"
       style="display:inline"><path
         style="fill:#e1000c;fill-opacity:1;fill-rule:evenodd;stroke:#000000;stroke-width:3;stroke-linecap:butt;stroke-linejoin:miter;stroke-dasharray:none;stroke-opacity:1"
         d="m 98.99376,102.46217 c -49.93914,-10.34996 -76.43507,84.59319 5.51765,86.62003 66.7358,-2.54052 68.00067,-86.58615 3.37455,-86.63902 z"
         id="path61" /><path
         style="fill:#ffffff;fill-opacity:1;fill-rule:evenodd;stroke:none;stroke-width:2.92246;stroke-linecap:butt;stroke-linejoin:miter;stroke-dasharray:none;stroke-opacity:1"
         d="m 99.10883,103.63783 c -48.72587,-10.066414 -74.5781,82.27579 5.3836,84.24711 65.11448,-2.47093 66.34862,-84.21415 3.29258,-84.26557 z"
         id="path62"
         clip-path="none" /><path
         style="fill:#038301;fill-opacity:1;fill-rule:evenodd;stroke:#000000;stroke-width:3;stroke-linecap:butt;stroke-linejoin:miter;stroke-dasharray:none;stroke-opacity:1"
         d="m 93.54781,85.63192 5.84562,14.37577 c 0,0 -21.1016,-2.75812 -22.46975,5.04638 0,0 1.81945,5.24573 10.5391,4.5383 0,0 -4.03924,12.42806 -0.24739,14.87349 7.02263,1.12456 17.20452,-10.81884 17.20452,-10.81884 0,0 7.92251,11.67781 15.892,9.80519 4.87921,-3.24392 0.90992,-14.90202 0.90992,-14.90202 5.18516,1.65679 9.71279,-2.22676 9.71279,-2.22676 -7.02554,-12.14309 -22.56154,-5.75912 -22.56154,-5.75912 l 2.5191,-12.93929 c -5.98143,-0.2607 -11.36323,-2.13252 -17.34437,-1.9931 z"
         id="path63" /></g></g></svg>
