<?xml version="1.0" encoding="UTF-8" standalone="no"?>
<!-- Created with Inkscape (http://www.inkscape.org/) -->

<svg
   width="106.4878mm"
   height="106.45873mm"
   viewBox="0 0 106.4878 106.45873"
   version="1.1"
   id="svg1"
   xml:space="preserve"
   xmlns="http://www.w3.org/2000/svg"
   xmlns:svg="http://www.w3.org/2000/svg"><defs
     id="defs1"><clipPath
       clipPathUnits="userSpaceOnUse"
       id="clipPath14"><rect
         style="fill:#ffffff;fill-opacity:1;stroke:none;stroke-width:3.89229;stroke-linecap:round;stroke-dasharray:none;stroke-opacity:1"
         id="rect14"
         width="144.19786"
         height="62.534351"
         x="-273.81808"
         y="16.120594"
         ry="0" /></clipPath></defs><g
     id="layer1"
     transform="translate(-50.486707,-84.124166)"><g
       id="g68"
       transform="translate(420.72536,63.620113)"
       style="display:inline"><path
         style="fill:#e1000c;fill-opacity:1;fill-rule:evenodd;stroke:#000000;stroke-width:3;stroke-linecap:butt;stroke-linejoin:miter;stroke-dasharray:none;stroke-opacity:1"
         d="m -321.7316,38.842044 c -49.93913,-10.349952 -76.43507,84.593196 5.51765,86.620036 66.73581,-2.54052 68.00068,-86.586153 3.37456,-86.639019 z"
         id="path43" /><path
         style="fill:#ffffff;fill-opacity:1;fill-rule:evenodd;stroke:none;stroke-width:2.92246;stroke-linecap:butt;stroke-linejoin:miter;stroke-dasharray:none;stroke-opacity:1"
         d="m -208.32411,19.812754 c -48.72587,-10.0664179 -74.5781,82.275786 5.3836,84.247106 65.11448,-2.47093 66.34862,-84.214152 3.29258,-84.26557 z"
         id="path44"
         clip-path="url(#clipPath14)"
         mask="none"
         transform="translate(-113.29242,20.20496)" /><path
         style="fill:#038301;fill-opacity:1;fill-rule:evenodd;stroke:#000000;stroke-width:3;stroke-linecap:butt;stroke-linejoin:miter;stroke-dasharray:none;stroke-opacity:1"
         d="m -327.17754,22.011797 5.84562,14.375771 c 0,0 -21.1016,-2.758115 -22.46975,5.046381 0,0 1.81945,5.245727 10.53909,4.538297 0,0 -4.03923,12.42806 -0.24738,14.87349 7.02263,1.12456 17.20452,-10.81884 17.20452,-10.81884 0,0 7.92251,11.67781 15.892,9.80519 4.87921,-3.24392 0.90992,-14.90202 0.90992,-14.90202 5.18516,1.65679 9.71278,-2.226756 9.71278,-2.226756 -7.02554,-12.143094 -22.56153,-5.759117 -22.56153,-5.759117 l 2.5191,-12.939296 c -5.98144,-0.260694 -11.36324,-2.132514 -17.34437,-1.9931 z"
         id="path45" /></g></g></svg>
