<?xml version="1.0" encoding="UTF-8" standalone="no"?>
<!-- Created with Inkscape (http://www.inkscape.org/) -->

<svg
   width="210mm"
   height="297mm"
   viewBox="0 0 210 297"
   version="1.1"
   id="svg1"
   xml:space="preserve"
   inkscape:version="1.3.2 (1:1.3.2+202311252150+091e20ef0f)"
   sodipodi:docname="icons.svg"
   xmlns:inkscape="http://www.inkscape.org/namespaces/inkscape"
   xmlns:sodipodi="http://sodipodi.sourceforge.net/DTD/sodipodi-0.dtd"
   xmlns="http://www.w3.org/2000/svg"
   xmlns:svg="http://www.w3.org/2000/svg"><sodipodi:namedview
     id="namedview1"
     pagecolor="#505050"
     bordercolor="#eeeeee"
     borderopacity="1"
     inkscape:showpageshadow="0"
     inkscape:pageopacity="0"
     inkscape:pagecheckerboard="0"
     inkscape:deskcolor="#d1d1d1"
     inkscape:document-units="mm"
     inkscape:zoom="1.0280428"
     inkscape:cx="363.31172"
     inkscape:cy="383.25253"
     inkscape:window-width="1892"
     inkscape:window-height="1054"
     inkscape:window-x="28"
     inkscape:window-y="0"
     inkscape:window-maximized="1"
     inkscape:current-layer="layer1"
     showguides="true"><sodipodi:guide
       position="47.870088,131.77099"
       orientation="1,0"
       id="guide2"
       inkscape:locked="false" /><sodipodi:guide
       position="61.786125,108.50499"
       orientation="0,-1"
       id="guide3"
       inkscape:locked="false" /><sodipodi:guide
       position="50.95848,115.81429"
       orientation="0,-1"
       id="guide4"
       inkscape:locked="false" /><sodipodi:guide
       position="33.200222,125.07947"
       orientation="0,-1"
       id="guide5"
       inkscape:locked="false" /><sodipodi:guide
       position="22.390847,134.34465"
       orientation="0,-1"
       id="guide6"
       inkscape:locked="false" /><sodipodi:guide
       position="41.17857,143.35246"
       orientation="0,-1"
       id="guide7"
       inkscape:locked="false" /><sodipodi:guide
       position="44.524329,153.13237"
       orientation="0,-1"
       id="guide8"
       inkscape:locked="false" /><sodipodi:guide
       position="48.38482,161.88282"
       orientation="0,-1"
       id="guide9"
       inkscape:locked="false" /><sodipodi:guide
       position="55.591069,171.40536"
       orientation="0,-1"
       id="guide10"
       inkscape:locked="false" /><sodipodi:guide
       position="60.223659,180.15581"
       orientation="0,-1"
       id="guide11"
       inkscape:locked="false" /><sodipodi:guide
       position="57.907364,186.58996"
       orientation="0,-1"
       id="guide12"
       inkscape:locked="false" /></sodipodi:namedview><defs
     id="defs1"><filter
       id="mask-powermask-path-effect37_inverse"
       inkscape:label="filtermask-powermask-path-effect37"
       style="color-interpolation-filters:sRGB"
       height="100"
       width="100"
       x="-50"
       y="-50"><feColorMatrix
         id="mask-powermask-path-effect37_primitive1"
         values="1"
         type="saturate"
         result="fbSourceGraphic" /><feColorMatrix
         id="mask-powermask-path-effect37_primitive2"
         values="-1 0 0 0 1 0 -1 0 0 1 0 0 -1 0 1 0 0 0 1 0 "
         in="fbSourceGraphic" /></filter><clipPath
       clipPathUnits="userSpaceOnUse"
       id="clipPath45"><rect
         style="fill:#ffffff;fill-opacity:1;stroke:none;stroke-width:3.6068;stroke-linecap:round;stroke-dasharray:none;stroke-opacity:1"
         id="rect46"
         width="144.19786"
         height="53.697384"
         x="-273.81808"
         y="16.120596"
         ry="0" /></clipPath><clipPath
       clipPathUnits="userSpaceOnUse"
       id="clipPath12"><rect
         style="fill:#ffffff;fill-opacity:1;stroke:none;stroke-width:4.43122;stroke-linecap:round;stroke-dasharray:none;stroke-opacity:1"
         id="rect12"
         width="144.19786"
         height="81.05085"
         x="-273.81808"
         y="16.12059"
         ry="0" /></clipPath><clipPath
       clipPathUnits="userSpaceOnUse"
       id="clipPath13"><rect
         style="fill:#ffffff;fill-opacity:1;stroke:none;stroke-width:4.17491;stroke-linecap:round;stroke-dasharray:none;stroke-opacity:1"
         id="rect13"
         width="144.19786"
         height="71.945412"
         x="-273.81808"
         y="16.120604"
         ry="0" /></clipPath><clipPath
       clipPathUnits="userSpaceOnUse"
       id="clipPath14"><rect
         style="fill:#ffffff;fill-opacity:1;stroke:none;stroke-width:3.89229;stroke-linecap:round;stroke-dasharray:none;stroke-opacity:1"
         id="rect14"
         width="144.19786"
         height="62.534351"
         x="-273.81808"
         y="16.120594"
         ry="0" /></clipPath><clipPath
       clipPathUnits="userSpaceOnUse"
       id="clipPath15"><rect
         style="fill:#ffffff;fill-opacity:1;stroke:none;stroke-width:3.2616;stroke-linecap:round;stroke-dasharray:none;stroke-opacity:1"
         id="rect15"
         width="144.19786"
         height="43.910938"
         x="-273.81808"
         y="16.12059"
         ry="0" /></clipPath><clipPath
       clipPathUnits="userSpaceOnUse"
       id="clipPath16"><rect
         style="fill:#ffffff;fill-opacity:1;stroke:none;stroke-width:2.91071;stroke-linecap:round;stroke-dasharray:none;stroke-opacity:1"
         id="rect16"
         width="144.19786"
         height="34.970985"
         x="-273.81808"
         y="16.120607"
         ry="0" /></clipPath><clipPath
       clipPathUnits="userSpaceOnUse"
       id="clipPath17"><rect
         style="fill:#ffffff;fill-opacity:1;stroke:none;stroke-width:2.48384;stroke-linecap:round;stroke-dasharray:none;stroke-opacity:1"
         id="rect17"
         width="144.19786"
         height="25.465971"
         x="-273.81808"
         y="16.120605"
         ry="0" /></clipPath><clipPath
       clipPathUnits="userSpaceOnUse"
       id="clipPath18"><rect
         style="fill:#ffffff;fill-opacity:1;stroke:none;stroke-width:3.0444;stroke-linecap:round;stroke-dasharray:none;stroke-opacity:1"
         id="rect18"
         width="144.19786"
         height="38.257938"
         x="-273.81808"
         y="-5.390244"
         ry="0" /></clipPath><clipPath
       clipPathUnits="userSpaceOnUse"
       id="clipPath20"><rect
         style="fill:#ffffff;fill-opacity:1;stroke:none;stroke-width:2.77775;stroke-linecap:round;stroke-dasharray:none;stroke-opacity:1"
         id="rect21"
         width="144.19786"
         height="31.849705"
         x="-273.81808"
         y="-5.3902459"
         ry="0" /></clipPath></defs><g
     inkscape:label="Layer 1"
     inkscape:groupmode="layer"
     id="layer1"><g
       id="g1"
       style="display:none"
       inkscape:label="0"
       inkscape:export-filename="0.svg"
       inkscape:export-xdpi="149"
       inkscape:export-ydpi="149"><path
         style="fill:#e1000c;fill-opacity:1;fill-rule:evenodd;stroke:#000000;stroke-width:3;stroke-linecap:butt;stroke-linejoin:miter;stroke-dasharray:none;stroke-opacity:1"
         d="m 98.99376,102.46217 c -49.93914,-10.34996 -76.43507,84.59319 5.51765,86.62003 66.7358,-2.54052 68.00067,-86.58615 3.37455,-86.63902 z"
         id="path61"
         sodipodi:nodetypes="cccc" /><path
         style="fill:#ffffff;fill-opacity:1;fill-rule:evenodd;stroke:none;stroke-width:2.92246;stroke-linecap:butt;stroke-linejoin:miter;stroke-dasharray:none;stroke-opacity:1"
         d="m 99.10883,103.63783 c -48.72587,-10.066414 -74.5781,82.27579 5.3836,84.24711 65.11448,-2.47093 66.34862,-84.21415 3.29258,-84.26557 z"
         id="path62"
         sodipodi:nodetypes="cccc"
         clip-path="none" /><path
         style="fill:#038301;fill-opacity:1;fill-rule:evenodd;stroke:#000000;stroke-width:3;stroke-linecap:butt;stroke-linejoin:miter;stroke-dasharray:none;stroke-opacity:1"
         d="m 93.54781,85.63192 5.84562,14.37577 c 0,0 -21.1016,-2.75812 -22.46975,5.04638 0,0 1.81945,5.24573 10.5391,4.5383 0,0 -4.03924,12.42806 -0.24739,14.87349 7.02263,1.12456 17.20452,-10.81884 17.20452,-10.81884 0,0 7.92251,11.67781 15.892,9.80519 4.87921,-3.24392 0.90992,-14.90202 0.90992,-14.90202 5.18516,1.65679 9.71279,-2.22676 9.71279,-2.22676 -7.02554,-12.14309 -22.56154,-5.75912 -22.56154,-5.75912 l 2.5191,-12.93929 c -5.98143,-0.2607 -11.36323,-2.13252 -17.34437,-1.9931 z"
         id="path63"
         sodipodi:nodetypes="cccccccccccc" /></g><g
       id="g2"
       style="display:none"
       inkscape:label="10"
       inkscape:export-filename="10.svg"
       inkscape:export-xdpi="149"
       inkscape:export-ydpi="149"><path
         style="fill:#e1000c;fill-opacity:1;fill-rule:evenodd;stroke:#000000;stroke-width:3;stroke-linecap:butt;stroke-linejoin:miter;stroke-dasharray:none;stroke-opacity:1"
         d="m 98.99375,102.46216 c -49.93914,-10.34996 -76.43507,84.59319 5.51765,86.62003 66.7358,-2.54052 68.00067,-86.58615 3.37455,-86.63902 z"
         id="path37"
         sodipodi:nodetypes="cccc" /><path
         style="fill:#ffffff;fill-opacity:1;fill-rule:evenodd;stroke:none;stroke-width:2.92246;stroke-linecap:butt;stroke-linejoin:miter;stroke-dasharray:none;stroke-opacity:1"
         d="m -208.32411,19.812754 c -48.72587,-10.0664179 -74.5781,82.275786 5.3836,84.247106 65.11448,-2.47093 66.34862,-84.214152 3.29258,-84.26557 z"
         id="path38"
         sodipodi:nodetypes="cccc"
         clip-path="url(#clipPath12)"
         transform="translate(307.43293,83.82507)" /><path
         style="fill:#038301;fill-opacity:1;fill-rule:evenodd;stroke:#000000;stroke-width:3;stroke-linecap:butt;stroke-linejoin:miter;stroke-dasharray:none;stroke-opacity:1"
         d="m 93.54781,85.63191 5.84561,14.37577 c 0,0 -21.1016,-2.75812 -22.46975,5.04638 0,0 1.81945,5.24573 10.5391,4.5383 0,0 -4.03924,12.42806 -0.24739,14.87349 7.02263,1.12456 17.20452,-10.81884 17.20452,-10.81884 0,0 7.92251,11.67781 15.892,9.80519 4.87921,-3.24392 0.90992,-14.90202 0.90992,-14.90202 5.18516,1.65679 9.71279,-2.22676 9.71279,-2.22676 -7.02554,-12.14309 -22.56154,-5.75912 -22.56154,-5.75912 l 2.5191,-12.93929 c -5.98143,-0.2607 -11.36323,-2.13252 -17.34436,-1.9931 z"
         id="path39"
         sodipodi:nodetypes="cccccccccccc" /></g><g
       id="g69"
       inkscape:label="20"
       transform="translate(421.92903,-74.399817)"
       style="display:none"
       inkscape:export-filename="20.svg"
       inkscape:export-xdpi="149"
       inkscape:export-ydpi="149"><path
         style="fill:#e1000c;fill-opacity:1;fill-rule:evenodd;stroke:#000000;stroke-width:3;stroke-linecap:butt;stroke-linejoin:miter;stroke-dasharray:none;stroke-opacity:1"
         d="m -322.93528,176.86197 c -49.93913,-10.34995 -76.43507,84.5932 5.51765,86.62004 66.73581,-2.54052 68.00068,-86.58615 3.37456,-86.63902 z"
         id="path40"
         sodipodi:nodetypes="cccc" /><path
         style="fill:#ffffff;fill-opacity:1;fill-rule:evenodd;stroke:none;stroke-width:2.92246;stroke-linecap:butt;stroke-linejoin:miter;stroke-dasharray:none;stroke-opacity:1"
         d="m -208.32411,19.812754 c -48.72587,-10.0664179 -74.5781,82.275786 5.3836,84.247106 65.11448,-2.47093 66.34862,-84.214152 3.29258,-84.26557 z"
         id="path41"
         sodipodi:nodetypes="cccc"
         clip-path="url(#clipPath13)"
         mask="none"
         transform="translate(-114.4961,158.22489)" /><path
         style="fill:#038301;fill-opacity:1;fill-rule:evenodd;stroke:#000000;stroke-width:3;stroke-linecap:butt;stroke-linejoin:miter;stroke-dasharray:none;stroke-opacity:1"
         d="m -328.38122,160.03173 5.84562,14.37577 c 0,0 -21.1016,-2.75812 -22.46975,5.04638 0,0 1.81945,5.24573 10.53909,4.5383 0,0 -4.03923,12.42806 -0.24738,14.87349 7.02263,1.12456 17.20452,-10.81884 17.20452,-10.81884 0,0 7.92251,11.67781 15.892,9.80519 4.87921,-3.24392 0.90992,-14.90202 0.90992,-14.90202 5.18516,1.65679 9.71278,-2.22676 9.71278,-2.22676 -7.02554,-12.14309 -22.56153,-5.75912 -22.56153,-5.75912 l 2.5191,-12.93929 c -5.98144,-0.2607 -11.36324,-2.13252 -17.34437,-1.9931 z"
         id="path42"
         sodipodi:nodetypes="cccccccccccc" /></g><g
       id="g68"
       inkscape:label="30"
       transform="translate(420.72536,63.620113)"
       style="display:none"
       inkscape:export-filename="30.svg"
       inkscape:export-xdpi="149"
       inkscape:export-ydpi="149"><path
         style="fill:#e1000c;fill-opacity:1;fill-rule:evenodd;stroke:#000000;stroke-width:3;stroke-linecap:butt;stroke-linejoin:miter;stroke-dasharray:none;stroke-opacity:1"
         d="m -321.7316,38.842044 c -49.93913,-10.349952 -76.43507,84.593196 5.51765,86.620036 66.73581,-2.54052 68.00068,-86.586153 3.37456,-86.639019 z"
         id="path43"
         sodipodi:nodetypes="cccc" /><path
         style="fill:#ffffff;fill-opacity:1;fill-rule:evenodd;stroke:none;stroke-width:2.92246;stroke-linecap:butt;stroke-linejoin:miter;stroke-dasharray:none;stroke-opacity:1"
         d="m -208.32411,19.812754 c -48.72587,-10.0664179 -74.5781,82.275786 5.3836,84.247106 65.11448,-2.47093 66.34862,-84.214152 3.29258,-84.26557 z"
         id="path44"
         sodipodi:nodetypes="cccc"
         clip-path="url(#clipPath14)"
         mask="none"
         transform="translate(-113.29242,20.20496)" /><path
         style="fill:#038301;fill-opacity:1;fill-rule:evenodd;stroke:#000000;stroke-width:3;stroke-linecap:butt;stroke-linejoin:miter;stroke-dasharray:none;stroke-opacity:1"
         d="m -327.17754,22.011797 5.84562,14.375771 c 0,0 -21.1016,-2.758115 -22.46975,5.046381 0,0 1.81945,5.245727 10.53909,4.538297 0,0 -4.03923,12.42806 -0.24738,14.87349 7.02263,1.12456 17.20452,-10.81884 17.20452,-10.81884 0,0 7.92251,11.67781 15.892,9.80519 4.87921,-3.24392 0.90992,-14.90202 0.90992,-14.90202 5.18516,1.65679 9.71278,-2.226756 9.71278,-2.226756 -7.02554,-12.143094 -22.56153,-5.759117 -22.56153,-5.759117 l 2.5191,-12.939296 c -5.98144,-0.260694 -11.36324,-2.132514 -17.34437,-1.9931 z"
         id="path45"
         sodipodi:nodetypes="cccccccccccc" /></g><g
       id="g67"
       inkscape:label="40"
       transform="translate(422.95368,194.6091)"
       style="display:none"
       inkscape:export-filename="40.svg"
       inkscape:export-xdpi="149"
       inkscape:export-ydpi="149"><path
         style="fill:#e1000c;fill-opacity:1;fill-rule:evenodd;stroke:#000000;stroke-width:3;stroke-linecap:butt;stroke-linejoin:miter;stroke-dasharray:none;stroke-opacity:1"
         d="m -323.95994,-92.146946 c -49.93913,-10.349954 -76.43507,84.593196 5.51765,86.620036 66.73581,-2.54052 68.00068,-86.586153 3.37456,-86.639019 z"
         id="path46"
         sodipodi:nodetypes="cccc" /><path
         style="fill:#ffffff;fill-opacity:1;fill-rule:evenodd;stroke:none;stroke-width:2.92246;stroke-linecap:butt;stroke-linejoin:miter;stroke-dasharray:none;stroke-opacity:1"
         d="m -208.32411,19.812754 c -48.72587,-10.0664179 -74.5781,82.275786 5.3836,84.247106 65.11448,-2.47093 66.34862,-84.214152 3.29258,-84.26557 z"
         id="path47"
         sodipodi:nodetypes="cccc"
         clip-path="url(#clipPath45)"
         mask="none"
         transform="translate(-115.52076,-110.78403)" /><path
         style="fill:#038301;fill-opacity:1;fill-rule:evenodd;stroke:#000000;stroke-width:3;stroke-linecap:butt;stroke-linejoin:miter;stroke-dasharray:none;stroke-opacity:1"
         d="m -329.40588,-108.97719 5.84562,14.375768 c 0,0 -21.1016,-2.758115 -22.46975,5.046381 0,0 1.81945,5.245727 10.53909,4.538297 0,0 -4.03923,12.42806 -0.24738,14.87349 7.02263,1.12456 17.20452,-10.81884 17.20452,-10.81884 0,0 7.92251,11.67781 15.892,9.80519 4.87921,-3.24392 0.90992,-14.90202 0.90992,-14.90202 5.18516,1.65679 9.71278,-2.226756 9.71278,-2.226756 -7.02554,-12.14309 -22.56153,-5.759117 -22.56153,-5.759117 l 2.5191,-12.939293 c -5.98144,-0.2607 -11.36324,-2.13252 -17.34437,-1.9931 z"
         id="path48"
         sodipodi:nodetypes="cccccccccccc" /></g><g
       id="g66"
       inkscape:label="50"
       transform="translate(421.04887,335.45457)"
       style="display:none"
       inkscape:export-filename="50.svg"
       inkscape:export-xdpi="149"
       inkscape:export-ydpi="149"><path
         style="fill:#e1000c;fill-opacity:1;fill-rule:evenodd;stroke:#000000;stroke-width:3;stroke-linecap:butt;stroke-linejoin:miter;stroke-dasharray:none;stroke-opacity:1"
         d="m -322.05511,-232.99242 c -49.93913,-10.34995 -76.43507,84.5932 5.51765,86.62004 66.73581,-2.54052 68.00068,-86.58615 3.37456,-86.63902 z"
         id="path49"
         sodipodi:nodetypes="cccc" /><path
         style="fill:#ffffff;fill-opacity:1;fill-rule:evenodd;stroke:none;stroke-width:2.92246;stroke-linecap:butt;stroke-linejoin:miter;stroke-dasharray:none;stroke-opacity:1"
         d="m -208.32411,19.812754 c -48.72587,-10.0664179 -74.5781,82.275786 5.3836,84.247106 65.11448,-2.47093 66.34862,-84.214152 3.29258,-84.26557 z"
         id="path50"
         sodipodi:nodetypes="cccc"
         clip-path="url(#clipPath15)"
         mask="none"
         transform="translate(-113.61593,-251.6295)" /><path
         style="fill:#038301;fill-opacity:1;fill-rule:evenodd;stroke:#000000;stroke-width:3;stroke-linecap:butt;stroke-linejoin:miter;stroke-dasharray:none;stroke-opacity:1"
         d="m -327.50105,-249.82266 5.84562,14.37577 c 0,0 -21.1016,-2.75812 -22.46975,5.04638 0,0 1.81945,5.24573 10.53909,4.5383 0,0 -4.03923,12.42806 -0.24738,14.87349 7.02263,1.12456 17.20452,-10.81884 17.20452,-10.81884 0,0 7.92251,11.67781 15.892,9.80519 4.87921,-3.24392 0.90992,-14.90202 0.90992,-14.90202 5.18516,1.65679 9.71278,-2.22676 9.71278,-2.22676 -7.02554,-12.14309 -22.56153,-5.75912 -22.56153,-5.75912 l 2.5191,-12.93929 c -5.98144,-0.2607 -11.36324,-2.13252 -17.34437,-1.9931 z"
         id="path51"
         sodipodi:nodetypes="cccccccccccc" /></g><g
       id="g65"
       inkscape:label="60"
       transform="translate(423.70647,459.43059)"
       style="display:none"
       inkscape:export-filename="60.svg"
       inkscape:export-xdpi="149"
       inkscape:export-ydpi="149"><path
         style="display:inline;fill:#e1000c;fill-opacity:1;fill-rule:evenodd;stroke:#000000;stroke-width:3;stroke-linecap:butt;stroke-linejoin:miter;stroke-dasharray:none;stroke-opacity:1"
         d="m -324.71273,-356.96845 c -49.93913,-10.34995 -76.43507,84.5932 5.51765,86.62004 66.73581,-2.54052 68.00068,-86.58615 3.37456,-86.63902 z"
         id="path52"
         sodipodi:nodetypes="cccc" /><path
         style="display:inline;fill:#ffffff;fill-opacity:1;fill-rule:evenodd;stroke:none;stroke-width:2.92246;stroke-linecap:butt;stroke-linejoin:miter;stroke-dasharray:none;stroke-opacity:1"
         d="m -208.32411,19.812754 c -48.72587,-10.0664179 -74.5781,82.275786 5.3836,84.247106 65.11448,-2.47093 66.34862,-84.214152 3.29258,-84.26557 z"
         id="path53"
         sodipodi:nodetypes="cccc"
         clip-path="url(#clipPath16)"
         mask="none"
         transform="translate(-116.27355,-375.60553)" /><path
         style="fill:#038301;fill-opacity:1;fill-rule:evenodd;stroke:#000000;stroke-width:3;stroke-linecap:butt;stroke-linejoin:miter;stroke-dasharray:none;stroke-opacity:1"
         d="m -330.15867,-373.79869 5.84562,14.37577 c 0,0 -21.1016,-2.75812 -22.46975,5.04638 0,0 1.81945,5.24573 10.53909,4.5383 0,0 -4.03923,12.42806 -0.24738,14.87349 7.02263,1.12456 17.20452,-10.81884 17.20452,-10.81884 0,0 7.92251,11.67781 15.892,9.80519 4.87921,-3.24392 0.90992,-14.90202 0.90992,-14.90202 5.18516,1.65679 9.71278,-2.22676 9.71278,-2.22676 -7.02554,-12.14309 -22.56153,-5.75912 -22.56153,-5.75912 l 2.5191,-12.93929 c -5.98144,-0.2607 -11.36324,-2.13252 -17.34437,-1.9931 z"
         id="path54"
         sodipodi:nodetypes="cccccccccccc" /></g><g
       id="g64"
       inkscape:label="70"
       transform="translate(426.88449,599.23013)"
       style="display:none"
       inkscape:export-filename="70.svg"
       inkscape:export-xdpi="149"
       inkscape:export-ydpi="149"><path
         style="fill:#e1000c;fill-opacity:1;fill-rule:evenodd;stroke:#000000;stroke-width:3;stroke-linecap:butt;stroke-linejoin:miter;stroke-dasharray:none;stroke-opacity:1"
         d="m -327.89074,-496.76798 c -49.93913,-10.34995 -76.43507,84.5932 5.51765,86.62004 66.73581,-2.54052 68.00068,-86.58615 3.37456,-86.63902 z"
         id="path55"
         sodipodi:nodetypes="cccc" /><path
         style="fill:#ffffff;fill-opacity:1;fill-rule:evenodd;stroke:none;stroke-width:2.92246;stroke-linecap:butt;stroke-linejoin:miter;stroke-dasharray:none;stroke-opacity:1"
         d="m -208.32411,19.812754 c -48.72587,-10.0664179 -74.5781,82.275786 5.3836,84.247106 65.11448,-2.47093 66.34862,-84.214152 3.29258,-84.26557 z"
         id="path56"
         sodipodi:nodetypes="cccc"
         clip-path="url(#clipPath17)"
         mask="none"
         transform="translate(-119.45156,-515.40506)" /><path
         style="fill:#038301;fill-opacity:1;fill-rule:evenodd;stroke:#000000;stroke-width:3;stroke-linecap:butt;stroke-linejoin:miter;stroke-dasharray:none;stroke-opacity:1"
         d="m -333.33668,-513.59822 5.84562,14.37577 c 0,0 -21.1016,-2.75812 -22.46975,5.04638 0,0 1.81945,5.24573 10.53909,4.5383 0,0 -4.03923,12.42806 -0.24738,14.87349 7.02263,1.12456 17.20452,-10.81884 17.20452,-10.81884 0,0 7.92251,11.67781 15.892,9.80519 4.87921,-3.24392 0.90992,-14.90202 0.90992,-14.90202 5.18516,1.65679 9.71278,-2.22676 9.71278,-2.22676 -7.02554,-12.14309 -22.56153,-5.75912 -22.56153,-5.75912 l 2.5191,-12.93929 c -5.98144,-0.2607 -11.36324,-2.13252 -17.34437,-1.9931 z"
         id="path57"
         sodipodi:nodetypes="cccccccccccc" /></g><g
       id="g63"
       inkscape:label="80"
       transform="translate(432.63704,730.21401)"
       style="display:none"
       inkscape:export-filename="80.svg"
       inkscape:export-xdpi="149"
       inkscape:export-ydpi="149"><path
         style="fill:#e1000c;fill-opacity:1;fill-rule:evenodd;stroke:#000000;stroke-width:3;stroke-linecap:butt;stroke-linejoin:miter;stroke-dasharray:none;stroke-opacity:1"
         d="m -333.64328,-627.75185 c -49.93913,-10.34995 -76.43507,84.5932 5.51765,86.62004 66.73581,-2.54052 68.00068,-86.58615 3.37456,-86.63902 z"
         id="path58"
         sodipodi:nodetypes="cccc" /><path
         style="fill:#ffffff;fill-opacity:1;fill-rule:evenodd;stroke:none;stroke-width:2.92246;stroke-linecap:butt;stroke-linejoin:miter;stroke-dasharray:none;stroke-opacity:1"
         d="m -208.32411,19.812754 c -48.72587,-10.0664179 -74.5781,82.275786 5.3836,84.247106 65.11448,-2.47093 66.34862,-84.214152 3.29258,-84.26557 z"
         id="path59"
         sodipodi:nodetypes="cccc"
         clip-path="url(#clipPath18)"
         mask="none"
         transform="translate(-125.2041,-646.38893)" /><path
         style="fill:#038301;fill-opacity:1;fill-rule:evenodd;stroke:#000000;stroke-width:3;stroke-linecap:butt;stroke-linejoin:miter;stroke-dasharray:none;stroke-opacity:1"
         d="m -339.08922,-644.58209 5.84562,14.37577 c 0,0 -21.1016,-2.75812 -22.46975,5.04638 0,0 1.81945,5.24573 10.53909,4.5383 0,0 -4.03923,12.42806 -0.24738,14.87349 7.02263,1.12456 17.20452,-10.81884 17.20452,-10.81884 0,0 7.92251,11.67781 15.892,9.80519 4.87921,-3.24392 0.90992,-14.90202 0.90992,-14.90202 5.18516,1.65679 9.71278,-2.22676 9.71278,-2.22676 -7.02554,-12.14309 -22.56153,-5.75912 -22.56153,-5.75912 l 2.5191,-12.93929 c -5.98144,-0.2607 -11.36324,-2.13252 -17.34437,-1.9931 z"
         id="path60"
         sodipodi:nodetypes="cccccccccccc" /></g><g
       id="g20"
       inkscape:label="90"
       transform="translate(432.63704,730.21402)"
       style="display:none"
       inkscape:export-filename="90.svg"
       inkscape:export-xdpi="149"
       inkscape:export-ydpi="149"><path
         style="fill:#e1000c;fill-opacity:1;fill-rule:evenodd;stroke:#000000;stroke-width:3;stroke-linecap:butt;stroke-linejoin:miter;stroke-dasharray:none;stroke-opacity:1"
         d="m -333.64328,-627.75185 c -49.93913,-10.34995 -76.43507,84.5932 5.51765,86.62004 66.73581,-2.54052 68.00068,-86.58615 3.37456,-86.63902 z"
         id="path18"
         sodipodi:nodetypes="cccc" /><path
         style="fill:#ffffff;fill-opacity:1;fill-rule:evenodd;stroke:none;stroke-width:2.92246;stroke-linecap:butt;stroke-linejoin:miter;stroke-dasharray:none;stroke-opacity:1"
         d="m -208.32411,19.812754 c -48.72587,-10.0664179 -74.5781,82.275786 5.3836,84.247106 65.11448,-2.47093 66.34862,-84.214152 3.29258,-84.26557 z"
         id="path19"
         sodipodi:nodetypes="cccc"
         clip-path="url(#clipPath20)"
         mask="none"
         transform="translate(-125.2041,-646.38893)" /><path
         style="display:inline;fill:#038301;fill-opacity:1;fill-rule:evenodd;stroke:#000000;stroke-width:3;stroke-linecap:butt;stroke-linejoin:miter;stroke-dasharray:none;stroke-opacity:1"
         d="m -339.08922,-644.58209 5.84562,14.37577 c 0,0 -21.1016,-2.75812 -22.46975,5.04638 0,0 1.81945,5.24573 10.53909,4.5383 0,0 -4.03923,12.42806 -0.24738,14.87349 7.02263,1.12456 17.20452,-10.81884 17.20452,-10.81884 0,0 7.92251,11.67781 15.892,9.80519 4.87921,-3.24392 0.90992,-14.90202 0.90992,-14.90202 5.18516,1.65679 9.71278,-2.22676 9.71278,-2.22676 -7.02554,-12.14309 -22.56153,-5.75912 -22.56153,-5.75912 l 2.5191,-12.93929 c -5.98144,-0.2607 -11.36324,-2.13252 -17.34437,-1.9931 z"
         id="path20"
         sodipodi:nodetypes="cccccccccccc" /></g><g
       id="g61"
       transform="translate(307.43292,83.825074)"
       inkscape:label="100"
       inkscape:export-filename="100.svg"
       inkscape:export-xdpi="149"
       inkscape:export-ydpi="149"
       style="display:none"><path
         style="fill:#e1000c;fill-opacity:1;fill-rule:evenodd;stroke:#000000;stroke-width:3;stroke-linecap:butt;stroke-linejoin:miter;stroke-dasharray:none;stroke-opacity:1"
         d="m -208.43918,18.637084 c -49.93913,-10.349952 -76.43507,84.593196 5.51765,86.620036 66.73581,-2.54052 68.00068,-86.586153 3.37456,-86.639019 z"
         id="path34"
         sodipodi:nodetypes="cccc" /><path
         style="fill:#038301;fill-opacity:1;fill-rule:evenodd;stroke:#000000;stroke-width:3;stroke-linecap:butt;stroke-linejoin:miter;stroke-dasharray:none;stroke-opacity:1"
         d="m -213.88512,1.806837 5.84562,14.375771 c 0,0 -21.1016,-2.758115 -22.46975,5.046381 0,0 1.81945,5.245727 10.53909,4.538297 0,0 -4.03923,12.42806 -0.24738,14.87349 7.02263,1.12456 17.20452,-10.81884 17.20452,-10.81884 0,0 7.92251,11.67781 15.892,9.80519 4.87921,-3.24392 0.90992,-14.90202 0.90992,-14.90202 5.18516,1.65679 9.71278,-2.226756 9.71278,-2.226756 -7.02554,-12.143094 -22.56153,-5.759117 -22.56153,-5.759117 l 2.5191,-12.939296 c -5.98144,-0.260694 -11.36324,-2.132514 -17.34437,-1.9931 z"
         id="path35"
         sodipodi:nodetypes="cccccccccccc" /></g><g
       id="g17"
       transform="translate(-3.1568339,10.500857)"
       inkscape:label="pause"
       style="display:none"
       inkscape:export-filename="pause.svg"
       inkscape:export-xdpi="149"
       inkscape:export-ydpi="149"><g
         id="g9"
         transform="translate(-46.742852,-12.333969)"><circle
           style="fill:#ffd500;fill-opacity:1;stroke:#000000;stroke-width:3;stroke-linecap:round;stroke-dasharray:none;stroke-opacity:1"
           id="path7"
           cx="190.27135"
           cy="162.09473"
           r="33.705883" /><circle
           style="fill:#ffffff;fill-opacity:1;stroke:#000000;stroke-width:2.76355;stroke-linecap:round;stroke-dasharray:none;stroke-opacity:1"
           id="circle7"
           cx="190.27135"
           cy="162.09473"
           r="25.4506" /><path
           style="fill:none;fill-rule:evenodd;stroke:#000000;stroke-width:4;stroke-linecap:round;stroke-linejoin:miter;stroke-dasharray:none;stroke-opacity:1"
           d="m 179.71937,174.2267 10.72184,-12.29519 0.23153,-19.92823"
           id="path8"
           sodipodi:nodetypes="ccc" /></g></g><g
       id="g15"
       transform="translate(-81.235224,8.3249542)"
       inkscape:label="relax"
       style="display:none"
       inkscape:export-filename="break.svg"
       inkscape:export-xdpi="149"
       inkscape:export-ydpi="149"><circle
         style="fill:#00aaff;fill-opacity:1;stroke:#000000;stroke-width:3;stroke-linecap:round;stroke-dasharray:none;stroke-opacity:1"
         id="circle11"
         cx="221.60689"
         cy="151.93666"
         r="33.705883" /><circle
         style="fill:#ffffff;fill-opacity:1;stroke:#000000;stroke-width:2.76355;stroke-linecap:round;stroke-dasharray:none;stroke-opacity:1"
         id="circle12"
         cx="221.60689"
         cy="151.93666"
         r="25.4506" /><path
         style="fill:none;fill-rule:evenodd;stroke:#000000;stroke-width:4;stroke-linecap:round;stroke-linejoin:miter;stroke-dasharray:none;stroke-opacity:1"
         d="m 211.05492,164.06863 10.72184,-12.29519 0.23153,-19.92822"
         id="path12"
         sodipodi:nodetypes="ccc" /></g><g
       id="g14"
       transform="translate(-38.546934,83.070317)"
       inkscape:label="play"
       style="display:none"
       inkscape:export-filename="play.svg"
       inkscape:export-xdpi="149"
       inkscape:export-ydpi="149"><circle
         style="fill:#0fff00;fill-opacity:1;stroke:#000000;stroke-width:3;stroke-linecap:round;stroke-dasharray:none;stroke-opacity:1"
         id="circle9"
         cx="178.91859"
         cy="77.191299"
         r="33.705883" /><circle
         style="fill:#ffffff;fill-opacity:1;stroke:#000000;stroke-width:2.76355;stroke-linecap:round;stroke-dasharray:none;stroke-opacity:1"
         id="circle10"
         cx="178.91859"
         cy="77.191299"
         r="25.4506" /><path
         style="fill:none;fill-rule:evenodd;stroke:#000000;stroke-width:4;stroke-linecap:round;stroke-linejoin:miter;stroke-dasharray:none;stroke-opacity:1"
         d="m 168.36661,89.323274 10.72184,-12.29519 0.23153,-19.92823"
         id="path10"
         sodipodi:nodetypes="ccc" /></g><g
       id="g16"
       transform="translate(73.808556,-61.592006)"
       inkscape:label="off"
       style="display:inline"
       inkscape:export-filename="off.svg"
       inkscape:export-xdpi="149"
       inkscape:export-ydpi="149"><g
         id="g72"
         transform="translate(-108.5812,-6.7821067)"><circle
           style="fill:#000000;fill-opacity:1;stroke:#000000;stroke-width:3;stroke-linecap:round;stroke-dasharray:none;stroke-opacity:1"
           id="circle13"
           cx="175.1443"
           cy="228.63573"
           r="33.705883" /><circle
           style="fill:#ffffff;fill-opacity:1;stroke:#000000;stroke-width:2.76355;stroke-linecap:round;stroke-dasharray:none;stroke-opacity:1"
           id="circle14"
           cx="175.1443"
           cy="228.63573"
           r="25.4506" /><path
           style="fill:none;fill-rule:evenodd;stroke:#000000;stroke-width:4;stroke-linecap:round;stroke-linejoin:miter;stroke-dasharray:none;stroke-opacity:1"
           d="m 164.59233,240.7677 10.72184,-12.29519 0.23153,-19.92822"
           id="path14"
           sodipodi:nodetypes="ccc" /></g></g></g></svg>
